<?xml version="1.0" standalone="no"?>
<!DOCTYPE svg PUBLIC "-//W3C//DTD SVG 20010904//EN"
 "http://www.w3.org/TR/2001/REC-SVG-20010904/DTD/svg10.dtd">
<svg version="1.0" xmlns="http://www.w3.org/2000/svg"
 width="512.000000pt" height="512.000000pt" viewBox="0 0 512.000000 512.000000"
 preserveAspectRatio="xMidYMid meet">

<g transform="translate(0.000000,512.000000) scale(0.100000,-0.100000)"
fill="#000000" stroke="none">
<path d="M240 4467 c-49 -16 -133 -102 -148 -153 -17 -60 -17 -3448 0 -3508
16 -55 99 -138 154 -154 60 -18 4568 -18 4628 0 55 16 138 99 154 154 17 59
18 3448 0 3506 -6 22 -31 62 -55 88 -79 88 155 80 -2417 79 -1633 -1 -2291 -4
-2316 -12z m4615 -172 l25 -24 0 -376 0 -375 -2320 0 -2320 0 0 375 0 376 25
24 24 25 2271 0 2271 0 24 -25z m25 -2190 l0 -1256 -25 -24 -24 -25 -2271 0
-2271 0 -24 25 -25 24 0 1256 0 1255 2320 0 2320 0 0 -1255z"/>
<path d="M400 3920 l0 -240 240 0 240 0 0 240 0 240 -240 0 -240 0 0 -240z
m320 0 l0 -80 -80 0 -80 0 0 80 0 80 80 0 80 0 0 -80z"/>
<path d="M1040 3920 l0 -240 240 0 240 0 0 240 0 240 -240 0 -240 0 0 -240z
m320 0 l0 -80 -80 0 -80 0 0 80 0 80 80 0 80 0 0 -80z"/>
<path d="M1680 3920 l0 -240 240 0 240 0 0 240 0 240 -240 0 -240 0 0 -240z
m320 0 l0 -80 -80 0 -80 0 0 80 0 80 80 0 80 0 0 -80z"/>
<path d="M1680 2640 l0 -560 -80 0 -80 0 0 480 0 480 -240 0 -240 0 0 -480 0
-480 -80 0 -80 0 0 400 0 400 -240 0 -240 0 0 -480 0 -480 880 0 880 0 0 640
0 640 -240 0 -240 0 0 -560z m320 -80 l0 -480 -80 0 -80 0 0 480 0 480 80 0
80 0 0 -480z m-640 -80 l0 -400 -80 0 -80 0 0 400 0 400 80 0 80 0 0 -400z
m-640 -80 l0 -320 -80 0 -80 0 0 320 0 320 80 0 80 0 0 -320z"/>
<path d="M3420 3185 c-351 -56 -660 -285 -824 -612 -213 -425 -126 -943 214
-1283 334 -333 838 -423 1259 -224 173 82 301 183 413 328 347 449 308 1075
-92 1476 -257 256 -611 371 -970 315z m100 -625 l0 -480 -441 0 -442 0 7 78
c28 335 228 628 531 780 93 46 160 68 265 87 41 7 76 13 78 14 1 1 2 -215 2
-479z m349 439 c319 -86 582 -364 668 -705 26 -104 23 -342 -5 -449 -27 -102
-118 -282 -183 -364 l-51 -63 -309 308 -309 309 0 501 0 501 58 -9 c31 -5 90
-18 131 -29z m0 -1383 l303 -303 -46 -32 c-224 -154 -538 -201 -805 -119 -201
61 -400 209 -514 381 -71 106 -147 294 -147 361 0 14 44 16 453 16 l452 0 304
-304z"/>
<path d="M706 1750 c-63 -16 -153 -70 -197 -117 -22 -24 -55 -74 -72 -111 -29
-61 -32 -76 -32 -163 0 -90 2 -99 37 -171 45 -91 103 -147 196 -191 61 -29 76
-32 162 -32 86 0 101 3 162 32 93 44 151 100 196 191 35 72 37 81 37 172 0 91
-2 100 -37 172 -68 136 -188 217 -336 224 -42 2 -94 -1 -116 -6z m168 -162
c86 -26 166 -136 166 -228 0 -124 -116 -240 -240 -240 -124 0 -240 116 -240
240 0 63 23 114 75 165 70 71 145 90 239 63z"/>
<path d="M1666 1750 c-63 -16 -153 -70 -197 -117 -22 -24 -55 -74 -72 -111
-29 -61 -32 -76 -32 -163 0 -90 2 -99 37 -171 45 -91 103 -147 196 -191 61
-29 76 -32 162 -32 86 0 101 3 162 32 93 44 151 100 196 191 35 72 37 81 37
172 0 91 -2 100 -37 172 -68 136 -188 217 -336 224 -42 2 -94 -1 -116 -6z
m168 -162 c86 -26 166 -136 166 -228 0 -124 -116 -240 -240 -240 -124 0 -240
116 -240 240 0 63 23 114 75 165 70 71 145 90 239 63z"/>
</g>
</svg>
