<?xml version="1.0" standalone="no"?>
<!DOCTYPE svg PUBLIC "-//W3C//DTD SVG 20010904//EN"
 "http://www.w3.org/TR/2001/REC-SVG-20010904/DTD/svg10.dtd">
<svg version="1.0" xmlns="http://www.w3.org/2000/svg"
 width="512.000000pt" height="512.000000pt" viewBox="0 0 512.000000 512.000000"
 preserveAspectRatio="xMidYMid meet">

<g transform="translate(0.000000,512.000000) scale(0.100000,-0.100000)"
fill="#000000" stroke="none">
<path d="M947 5106 c-90 -33 -137 -112 -137 -228 0 -193 137 -520 283 -676
137 -146 447 -296 637 -309 102 -7 157 6 205 48 104 92 79 352 -61 631 -84
167 -157 254 -288 342 -224 151 -516 238 -639 192z"/>
<path d="M2481 5044 c-18 -10 -45 -35 -60 -58 l-26 -40 0 -1940 0 -1941 24
-38 c64 -104 230 -101 289 6 16 30 17 150 17 1972 0 1822 -1 1942 -17 1972
-40 72 -151 105 -227 67z"/>
<path d="M4005 3514 c-225 -59 -443 -174 -568 -298 -157 -158 -295 -498 -285
-701 5 -103 33 -159 98 -195 65 -36 199 -34 320 5 176 56 368 165 472 266 102
100 205 290 265 487 36 121 39 276 5 339 -12 24 -41 55 -63 70 -36 24 -52 27
-133 29 -50 2 -100 0 -111 -2z"/>
<path d="M1120 1439 c-522 -50 -954 -452 -1045 -973 -22 -128 -20 -250 6 -306
29 -64 84 -117 146 -140 53 -20 81 -20 2333 -20 2252 0 2280 0 2333 20 62 23
117 76 146 140 51 113 4 426 -95 622 -77 155 -223 331 -353 427 -122 91 -274
163 -421 201 -123 31 -273 40 -702 40 l-408 0 0 -203 c0 -158 -4 -216 -16
-258 -68 -228 -256 -373 -484 -373 -233 0 -431 158 -485 386 -10 44 -15 121
-15 256 l0 192 -427 -1 c-236 -1 -466 -5 -513 -10z"/>
</g>
</svg>
