<?xml version="1.0" standalone="no"?>
<!DOCTYPE svg PUBLIC "-//W3C//DTD SVG 20010904//EN"
 "http://www.w3.org/TR/2001/REC-SVG-20010904/DTD/svg10.dtd">
<svg version="1.0" xmlns="http://www.w3.org/2000/svg"
 width="512.000000pt" height="512.000000pt" viewBox="0 0 512.000000 512.000000"
 preserveAspectRatio="xMidYMid meet">

<g transform="translate(0.000000,512.000000) scale(0.100000,-0.100000)"
fill="#000000" stroke="none">
<path d="M3403 5105 c-387 -70 -676 -371 -734 -766 -10 -73 -17 -90 -51 -133
-54 -68 -104 -169 -129 -263 -12 -43 -22 -79 -24 -81 -1 -1 -9 37 -19 85 -11
59 -31 119 -63 183 -38 79 -60 109 -132 181 -71 71 -102 94 -181 133 -120 59
-208 76 -391 76 -153 0 -186 -9 -207 -55 -7 -14 -12 -44 -12 -66 0 -55 28
-185 50 -236 l19 -43 -472 0 -472 1 -30 51 c-120 208 -428 189 -529 -31 -29
-64 -29 -178 0 -242 30 -65 77 -114 139 -144 143 -71 312 -22 390 113 l30 51
543 1 544 0 46 -41 c64 -56 210 -125 304 -144 42 -8 126 -15 185 -15 l109 0
46 -47 c25 -27 57 -68 69 -93 24 -45 24 -45 27 -481 l3 -437 -253 -4 c-217 -4
-264 -8 -330 -26 -97 -26 -207 -77 -289 -133 -70 -47 -187 -161 -215 -209
l-18 -30 -157 0 c-203 0 -286 -15 -408 -76 -78 -39 -110 -62 -181 -133 -71
-70 -95 -103 -132 -176 -24 -49 -50 -118 -57 -151 l-13 -62 -92 -4 c-75 -3
-103 -9 -148 -31 -64 -31 -111 -80 -142 -146 -21 -45 -21 -57 -21 -651 0 -594
0 -606 21 -651 31 -66 78 -114 142 -146 l57 -28 475 0 475 0 57 28 c113 55
160 139 166 294 l4 103 228 0 228 0 4 -102 c6 -156 53 -240 166 -295 l57 -28
475 0 475 0 57 28 c113 55 160 139 166 295 l4 102 228 0 228 0 4 -102 c6 -156
53 -240 166 -295 l57 -28 475 0 475 0 57 28 c106 52 159 139 166 274 5 96 -7
137 -49 158 -35 19 -63 19 -98 1 -36 -19 -51 -55 -51 -126 0 -32 -5 -71 -12
-85 -25 -54 -31 -55 -488 -55 -457 0 -463 1 -488 55 -17 37 -17 1113 0 1150
25 54 31 55 488 55 457 0 463 -1 488 -55 7 -14 12 -53 12 -85 0 -71 15 -107
51 -126 35 -18 63 -18 98 1 42 21 54 62 49 159 -10 191 -117 295 -314 304
l-91 4 -12 57 c-7 31 -33 99 -58 151 -39 80 -59 108 -132 181 -72 72 -102 94
-181 132 -131 64 -206 77 -437 77 l-189 0 -18 30 c-28 48 -145 162 -215 209
-82 56 -192 107 -289 133 -64 17 -115 22 -299 25 l-223 5 0 118 c0 153 16 203
88 282 l54 58 109 0 c61 0 145 7 187 15 94 19 240 88 304 144 l46 41 344 0
343 -1 30 -51 c117 -203 418 -191 522 20 23 47 28 70 28 132 -1 122 -56 215
-160 265 -143 71 -312 22 -390 -113 l-30 -51 -272 -1 -272 0 19 43 c22 51 50
181 50 236 0 22 -5 52 -12 66 -21 46 -54 55 -207 55 -183 0 -271 -17 -391 -76
-79 -39 -110 -62 -181 -133 -72 -72 -94 -102 -132 -181 -26 -52 -53 -126 -61
-165 -14 -68 -14 -64 -15 180 0 179 3 269 13 316 15 69 61 171 103 225 l23 31
153 6 c219 7 360 50 518 158 70 47 187 161 215 209 l18 30 416 0 415 -1 30
-51 c93 -161 314 -194 458 -69 92 82 121 237 64 353 -104 211 -405 223 -522
20 l-30 -51 -364 -1 c-342 0 -363 1 -356 18 15 40 35 142 41 214 8 90 -5 132
-47 153 -36 19 -302 19 -406 0z m247 -196 c0 -6 -7 -39 -16 -73 -47 -180 -191
-355 -365 -439 -56 -28 -125 -53 -171 -62 -91 -18 -228 -20 -228 -4 0 6 7 39
16 73 46 180 191 355 364 440 54 26 125 53 165 60 88 18 235 20 235 5z m1219
-203 c67 -35 65 -143 -4 -174 -91 -41 -179 51 -131 137 26 47 84 63 135 37z
m-2994 -401 c170 -44 300 -161 355 -320 11 -32 20 -60 20 -62 0 -1 -33 -3 -73
-3 -146 0 -268 49 -368 149 -63 64 -116 152 -133 224 l-6 27 73 0 c40 0 100
-7 132 -15z m-1526 -199 c67 -35 65 -143 -4 -174 -51 -23 -107 -7 -131 39 -47
91 44 182 135 135z m3101 -389 c0 -2 -9 -30 -20 -62 -70 -203 -262 -335 -487
-335 l-73 0 6 28 c17 71 70 159 133 223 103 102 212 146 364 148 42 1 77 -1
77 -2z m1019 -211 c67 -35 65 -143 -4 -174 -91 -41 -179 51 -131 137 26 47 84
63 135 37z m-1371 -1061 c94 -19 242 -89 303 -144 l44 -40 -252 -1 c-272 0
-294 -4 -319 -51 -17 -34 -18 -60 -2 -94 25 -56 19 -55 632 -55 374 0 583 -4
618 -11 167 -35 313 -163 368 -324 11 -32 20 -59 20 -61 0 -2 -127 -4 -282 -6
-263 -3 -286 -4 -329 -24 -66 -31 -114 -78 -146 -142 -27 -56 -28 -61 -31
-259 l-3 -203 -229 0 -229 0 -3 203 c-3 198 -4 203 -31 259 -32 64 -80 111
-146 142 -45 20 -59 21 -521 21 -462 0 -476 -1 -521 -21 -66 -31 -114 -78
-146 -142 -27 -56 -28 -61 -31 -259 l-3 -203 -229 0 -229 0 -3 203 c-3 198 -4
203 -31 259 -32 64 -80 111 -146 142 -43 20 -66 21 -329 24 l-282 3 6 27 c4
15 20 56 37 92 37 80 140 185 218 223 117 57 115 57 841 57 496 0 674 3 693
12 29 13 55 55 55 88 0 33 -26 75 -55 88 -19 9 -134 12 -408 12 l-382 1 44 40
c58 52 208 125 296 143 106 22 1034 22 1143 1z m-1953 -997 c55 -25 55 -20 55
-617 0 -405 -3 -557 -12 -576 -25 -54 -31 -55 -488 -55 -457 0 -463 1 -488 55
-9 19 -12 171 -12 578 1 591 0 585 51 613 33 18 855 20 894 2z m1860 0 c55
-25 55 -20 55 -617 0 -405 -3 -557 -12 -576 -25 -54 -31 -55 -488 -55 -457 0
-463 1 -488 55 -9 19 -12 171 -12 578 1 591 0 585 51 613 33 18 855 20 894 2z
m-1145 -718 l0 -100 -230 0 -230 0 0 100 0 100 230 0 230 0 0 -100z m1860 0
l0 -100 -230 0 -230 0 0 100 0 100 230 0 230 0 0 -100z"/>
<path d="M451 1216 c-49 -27 -50 -39 -51 -384 0 -261 3 -328 14 -351 15 -28
53 -51 87 -51 28 0 75 26 85 47 5 10 11 85 14 167 l5 149 113 -170 c110 -166
136 -193 183 -193 32 0 74 26 87 55 17 37 17 653 0 690 -13 29 -55 55 -88 55
-29 0 -76 -26 -86 -47 -5 -10 -11 -85 -14 -167 l-5 -149 -113 170 c-69 104
-123 175 -138 182 -32 14 -63 14 -93 -3z"/>
<path d="M2311 1217 c-49 -29 -50 -40 -51 -385 0 -351 2 -366 55 -390 33 -15
57 -15 90 0 37 17 55 58 55 126 l0 60 88 4 c142 7 233 63 286 177 32 71 29
179 -7 253 -32 64 -80 111 -146 142 -39 18 -69 21 -196 23 -113 3 -156 0 -174
-10z m298 -201 c28 -15 51 -53 51 -86 0 -33 -23 -71 -51 -86 -16 -8 -55 -14
-89 -14 l-60 0 0 100 0 100 60 0 c34 0 73 -6 89 -14z"/>
<path d="M4171 1216 c-49 -27 -50 -39 -51 -384 0 -351 2 -366 55 -390 33 -15
57 -15 90 0 38 17 55 58 55 128 l0 61 118 -89 c64 -49 127 -94 139 -100 82
-44 171 45 132 131 -6 13 -80 75 -165 138 -84 63 -153 116 -153 119 0 3 69 56
153 119 85 63 159 125 165 138 39 86 -50 175 -132 131 -12 -6 -75 -51 -139
-100 l-118 -89 0 60 c0 72 -14 108 -51 127 -34 17 -67 17 -98 0z"/>
<path d="M4971 916 c-87 -48 -50 -186 49 -186 51 0 100 49 100 99 0 75 -83
124 -149 87z"/>
</g>
</svg>
