<?xml version="1.0" standalone="no"?>
<!DOCTYPE svg PUBLIC "-//W3C//DTD SVG 20010904//EN"
 "http://www.w3.org/TR/2001/REC-SVG-20010904/DTD/svg10.dtd">
<svg version="1.0" xmlns="http://www.w3.org/2000/svg"
 width="512.000000pt" height="512.000000pt" viewBox="0 0 512.000000 512.000000"
 preserveAspectRatio="xMidYMid meet">

<g transform="translate(0.000000,512.000000) scale(0.100000,-0.100000)"
fill="#000000" stroke="none">
<path d="M4780 5109 c-179 -12 -450 -37 -630 -59 -143 -18 -157 -21 -177 -45
-33 -38 -29 -69 16 -118 60 -65 75 -102 75 -182 0 -51 -6 -84 -22 -119 -85
-189 -265 -241 -421 -122 -46 34 -68 33 -143 -8 -107 -58 -241 -70 -336 -30
-42 17 -83 18 -104 2 -9 -7 -27 -32 -42 -55 -104 -168 -380 -161 -482 14 -24
40 -29 61 -32 140 -4 85 -7 95 -30 113 -13 11 -34 20 -46 20 -29 0 -270 -94
-421 -163 -268 -123 -596 -323 -623 -380 -12 -25 -10 -34 30 -114 38 -78 42
-93 42 -157 -2 -174 -143 -326 -304 -326 -58 0 -81 -25 -92 -100 -17 -125 -82
-219 -188 -269 -48 -23 -68 -26 -157 -26 -89 0 -105 -3 -122 -20 -66 -68 -188
-666 -150 -738 28 -52 84 -63 123 -24 19 19 25 39 30 98 11 121 45 312 74 416
l27 98 75 7 c95 10 154 30 227 77 100 64 167 153 203 270 17 52 19 54 71 71
86 27 139 58 200 119 137 138 183 360 109 528 l-19 43 87 53 c202 125 394 223
591 302 99 39 110 38 111 -11 0 -43 61 -143 120 -197 65 -61 117 -89 205 -112
156 -40 336 9 430 118 l33 38 81 -12 c98 -15 199 -3 294 36 l61 24 60 -29
c167 -82 326 -52 467 89 131 132 180 315 124 470 -8 25 -12 48 -8 52 13 11
473 53 682 61 l75 3 -2 -60 c-9 -258 -70 -843 -121 -1165 -11 -64 0 -97 40
-119 32 -18 74 -8 94 23 35 52 104 619 140 1146 20 287 20 286 -10 315 -22 23
-31 25 -107 24 -46 -1 -139 -6 -208 -10z"/>
<path d="M2825 3655 c-28 -28 -33 -78 -14 -167 30 -144 120 -258 295 -374 63
-41 114 -77 114 -79 0 -2 -28 -32 -63 -67 -76 -76 -119 -157 -148 -283 -12
-49 -25 -106 -30 -126 -7 -29 -16 -39 -49 -52 l-39 -15 -126 94 -125 94 0 231
c0 127 -4 238 -9 248 -16 30 -284 201 -314 201 -55 0 -94 -69 -68 -119 6 -10
60 -50 120 -91 l111 -73 0 -232 c0 -207 2 -235 18 -253 9 -11 64 -55 122 -97
58 -43 109 -82 115 -87 5 -5 -11 -29 -42 -61 -28 -28 -69 -78 -92 -111 -41
-60 -101 -199 -101 -236 0 -16 -32 -36 -160 -100 -87 -44 -164 -88 -170 -99
-6 -12 -10 -98 -10 -212 l0 -193 -120 -121 c-103 -105 -120 -126 -120 -154 0
-43 38 -81 82 -81 28 0 50 18 175 143 l143 143 0 192 0 192 80 40 80 40 0
-247 c0 -283 12 -392 60 -527 l31 -88 -85 -88 -86 -87 0 -199 0 -198 -120
-121 c-103 -105 -120 -126 -120 -154 0 -43 38 -81 82 -81 28 0 50 18 175 143
l143 143 0 200 0 200 48 47 49 48 40 -53 c326 -432 945 -535 1397 -234 89 59
186 151 249 234 l40 53 49 -48 48 -47 0 -200 0 -200 143 -143 c125 -125 147
-143 175 -143 44 0 82 38 82 81 0 28 -17 49 -120 154 l-120 121 0 198 0 199
-86 87 -85 88 31 88 c48 135 60 244 60 527 l0 247 80 -40 80 -40 0 -192 0
-193 143 -142 c125 -124 148 -143 176 -143 43 0 81 38 81 81 0 28 -17 49 -120
154 l-120 121 0 193 c0 114 -4 200 -10 212 -6 11 -83 55 -170 99 -128 64 -160
84 -160 100 0 12 -14 56 -30 99 -33 86 -104 193 -169 256 -23 21 -41 42 -41
46 0 3 56 47 124 98 68 50 127 99 130 107 3 9 6 118 6 243 l0 228 115 76 c117
79 135 100 120 147 -10 31 -45 60 -74 60 -29 0 -297 -173 -312 -201 -5 -10 -9
-121 -9 -248 l0 -231 -125 -94 -126 -94 -39 15 c-44 17 -39 6 -79 176 -29 126
-71 207 -147 284 -35 36 -64 67 -64 69 0 2 45 33 100 69 213 138 301 263 317
452 5 67 4 73 -20 97 -55 55 -137 17 -137 -63 0 -60 -33 -154 -75 -211 -28
-38 -76 -76 -197 -157 l-159 -108 -127 0 -127 -1 -162 108 c-123 82 -170 120
-198 159 -42 56 -75 150 -75 210 0 50 -35 89 -80 89 -19 0 -40 -9 -55 -25z
m804 -714 c89 -28 162 -87 203 -166 12 -22 31 -79 44 -127 l22 -88 -378 0
-378 0 22 88 c13 48 32 105 44 127 77 148 255 218 421 166z m392 -572 c95 -37
148 -70 213 -135 95 -95 150 -213 163 -347 l6 -72 -69 65 c-85 79 -172 131
-279 168 l-80 27 -455 0 -455 0 -80 -27 c-106 -37 -194 -89 -277 -167 l-68
-63 0 34 c0 107 55 255 126 340 80 96 209 175 320 197 28 5 229 9 459 8 l410
-2 66 -26z m-581 -544 c0 -88 2 -98 25 -120 15 -16 36 -25 55 -25 19 0 40 9
55 25 23 22 25 32 25 120 l0 96 158 -3 157 -3 3 -340 c2 -216 -1 -369 -8 -420
-29 -199 -125 -403 -259 -546 l-50 -54 -1 298 0 298 -25 24 c-15 16 -36 25
-55 25 -19 0 -40 -9 -55 -25 l-25 -24 0 -298 -1 -298 -50 54 c-105 112 -197
282 -240 441 -21 80 -23 108 -27 463 -2 208 -1 385 2 393 4 11 36 14 161 14
l155 0 0 -95z m-480 -289 c0 -179 5 -359 11 -402 24 -177 105 -377 213 -527
64 -89 61 -90 -59 -30 -242 121 -414 346 -469 615 -53 255 36 501 225 627 34
23 65 41 70 41 5 0 9 -143 9 -324z m1199 283 c279 -186 319 -608 90 -947 -85
-126 -216 -242 -341 -300 -113 -53 -115 -52 -52 35 108 150 189 350 213 527 6
43 11 223 11 402 0 181 4 324 9 324 5 0 36 -18 70 -41z"/>
<path d="M3465 1495 c-50 -49 -15 -135 55 -135 41 0 80 39 80 80 0 41 -39 80
-80 80 -19 0 -40 -9 -55 -25z"/>
<path d="M1432 3022 c-61 -22 -95 -51 -125 -107 -22 -40 -22 -47 -25 -670 l-2
-630 -252 -252 c-139 -139 -256 -249 -259 -245 -21 22 -116 383 -148 561 -23
128 -43 161 -93 161 -41 0 -64 -15 -76 -49 -18 -51 49 -362 140 -649 l52 -163
-311 -312 c-282 -284 -311 -316 -323 -360 -41 -151 77 -307 232 -307 90 0 106
13 428 335 168 168 311 305 319 305 8 0 64 -16 125 -36 319 -103 788 -194
1002 -194 55 0 63 3 79 26 27 42 30 89 8 111 -16 16 -40 21 -128 26 -201 13
-463 58 -705 123 -129 34 -250 74 -250 82 0 4 111 118 248 255 l247 247 88 0
c80 0 90 2 112 25 16 15 25 36 25 55 0 19 -9 40 -25 55 -23 24 -30 25 -142 25
l-117 0 -641 -640 c-585 -584 -644 -640 -673 -640 -44 0 -82 38 -82 82 0 30
54 87 640 673 l640 641 0 635 c0 696 -2 670 59 684 33 7 85 -15 95 -40 3 -9 6
-227 6 -484 0 -459 0 -469 21 -495 15 -20 29 -26 57 -26 36 0 51 14 300 263
284 284 286 288 239 343 -17 19 -33 27 -56 27 -29 0 -54 -21 -217 -184 l-184
-184 0 375 c-1 403 -2 417 -54 484 -55 72 -177 102 -274 68z"/>
<path d="M425 2135 c-16 -15 -25 -36 -25 -55 0 -19 9 -40 25 -55 49 -50 135
-15 135 55 0 41 -39 80 -80 80 -19 0 -40 -9 -55 -25z"/>
</g>
</svg>
